<?xml version="1.0" encoding="iso-8859-1"?>
<!-- Uploaded to: SVG Repo, www.svgrepo.com, Generator: SVG Repo Mixer Tools -->
<svg version="1.1" id="Layer_1" xmlns="http://www.w3.org/2000/svg" xmlns:xlink="http://www.w3.org/1999/xlink" 
	 viewBox="0 0 512 512" xml:space="preserve">
<rect x="177.231" style="fill:#FF5023;" width="157.538" height="380.718"/>
<path style="fill:#A2001D;" d="M177.231,0v380.718h52.513c0,0,0-263.068,0-380.718H177.231z"/>
<g>
	<path style="fill:#D80027;" d="M282.256,0v380.718h52.513c0,0,0-263.068,0-380.718H282.256z"/>
	<path style="fill:#D80027;" d="M229.744,0v380.718H256c0,0,0-263.068,0-380.718H229.744z"/>
</g>
<path style="fill:#FFD6A0;" d="M308.513,362.995c-10.975,0-20.631,7.049-26.256,17.723c-5.625-10.675-15.281-17.723-26.256-17.723
	c-10.975,0-20.631,7.049-26.256,17.723c-5.625-10.675-15.281-17.723-26.256-17.723c-10.975,0-20.631,7.049-26.256,17.723L256,512
	l78.769-131.282C329.144,370.043,319.488,362.995,308.513,362.995z"/>
<path style="fill:#FFC170;" d="M256,362.995c-10.975,0-20.631,7.049-26.256,17.723c-5.625-10.675-15.281-17.723-26.256-17.723
	c-10.975,0-20.631,7.049-26.256,17.723L256,512C256,512,256,398.769,256,362.995z"/>
<polygon points="224.445,459.487 256,512 287.555,459.487 "/>
</svg>